<svg xmlns="http://www.w3.org/2000/svg" width="44" height="44" viewBox="0 0 44 44">
    <path fill="#0077B5" fill-rule="nonzero" d="M40.857 0H3.133C1.404 0 0 1.424 0 3.172v37.656C0 42.576 1.404 44 3.133 44h37.724C42.586 44 44 42.576 44 40.828V3.172C44 1.424 42.586 0 40.857 0zM13.298 37.714H6.777V16.716h6.531v20.998h-.01zm-3.26-23.866a3.783 3.783 0 0 1-3.782-3.781 3.783 3.783 0 0 1 3.781-3.781 3.79 3.79 0 0 1 3.782 3.781 3.777 3.777 0 0 1-3.782 3.781zm27.706 23.866h-6.522V27.5c0-2.436-.049-5.569-3.388-5.569-3.398 0-3.919 2.652-3.919 5.392v10.391h-6.521V16.716h6.256v2.868h.088c.875-1.65 3.006-3.388 6.178-3.388 6.6 0 7.828 4.35 7.828 10.008v11.51z"/>
</svg>
