<svg xmlns="http://www.w3.org/2000/svg" width="32" height="32" viewBox="0 0 32 32">
    <path fill="#FFF" fill-rule="nonzero" d="M16 0c8.836 0 16 7.162 16 16 0 8.836-7.164 16-16 16S0 24.836 0 16 7.164 0 16 0zm7.938 16.513a1.3 1.3 0 0 0-1.643-.818l-1.622.54-1.082-3.215 1.621-.54a1.298 1.298 0 0 0 .822-1.64 1.3 1.3 0 0 0-1.643-.817l-1.622.539-.56-1.679a1.3 1.3 0 0 0-1.644-.818 1.298 1.298 0 0 0-.821 1.64l.56 1.679-3.336 1.114-.56-1.679a1.3 1.3 0 0 0-1.644-.818 1.298 1.298 0 0 0-.821 1.64l.56 1.679-1.618.535a1.298 1.298 0 0 0-.821 1.64 1.34 1.34 0 0 0 1.2.879c.243.035.429-.058 2.061-.6l1.082 3.214-1.621.54c-.68.221-1.04.96-.822 1.64a1.34 1.34 0 0 0 1.2.878c.243.036.429-.057 2.061-.6l.561 1.679c.21.603.882 1.036 1.643.818a1.298 1.298 0 0 0 .822-1.64l-.561-1.679 3.343-1.118.561 1.68c.21.603.882 1.035 1.643.817a1.298 1.298 0 0 0 .822-1.64l-.56-1.678 1.62-.54c.68-.214 1.04-.953.819-1.632zm-9.077 1.686l-1.082-3.222 3.34-1.118L18.2 17.08l-3.34 1.118z"/>
</svg>
