<svg xmlns="http://www.w3.org/2000/svg" width="20" height="20" viewBox="0 0 20 20">
    <path fill="#FFF" fill-rule="nonzero" d="M10 0C4.485 0 0 4.485 0 10s4.485 10 10 10 10-4.485 10-10S15.515 0 10 0zm0 1.395A8.594 8.594 0 0 1 18.605 10 8.594 8.594 0 0 1 10 18.605 8.594 8.594 0 0 1 1.395 10 8.594 8.594 0 0 1 10 1.395zm0 2.093c-1.946 0-3.537 1.268-3.932 2.85a.698.698 0 1 0 1.352.34C7.632 5.83 8.687 4.885 10 4.885c.647 0 1.324.237 1.802.625.479.387.756.886.756 1.468 0 .763-.155 1.106-.363 1.373-.208.268-.54.475-.974.785-.434.31-.95.738-1.323 1.432s-.596 1.623-.596 2.921a.698.698 0 1 0 1.396 0c0-1.143.192-1.82.428-2.26.237-.44.529-.68.909-.952.38-.271.862-.55 1.264-1.068.403-.518.654-1.25.654-2.231 0-1.047-.537-1.95-1.279-2.551A4.268 4.268 0 0 0 10 3.488zm.007 11.163a.936.936 0 0 0-.937.93c0 .514.423.93.937.93a.93.93 0 1 0 0-1.86z"/>
</svg>
