<svg xmlns="http://www.w3.org/2000/svg" width="115" height="83" viewBox="0 0 115 83">
    <g fill="#145F73" fill-rule="evenodd">
        <g fill-rule="nonzero">
            <path d="M31 37.022L33.5 41 51.611 9.785l13 19.723H70L51.556 1z"/>
            <path d="M49.278 31.913L47 36l35-.056L58.333 0l-5 .056 20.445 31.857h-.167.111z"/>
            <path d="M44.474 38.857h-.055l4.181-7.782.279-.616 6.523-11.98L52.503 14 36 42.776 80.324 43 83 38.857H44.419z"/>
        </g>
        <path d="M26.136 82.012H20.7l-4.212-16.488-4.176 16.488H6.876L0 58h5.724l4.212 17.352L14.508 58h3.996l4.536 17.352L27.252 58h5.724l-6.84 24.012zm22.102 0H43.63v-1.836c-1.188 1.44-3.24 2.268-5.508 2.268-2.772 0-6.012-1.872-6.012-5.76 0-4.104 3.24-5.616 6.012-5.616 2.34 0 4.356.756 5.508 2.124v-2.196c0-1.764-1.512-2.916-3.816-2.916-1.836 0-3.564.72-5.004 2.052l-1.8-3.204c2.124-1.908 4.86-2.736 7.596-2.736 3.996 0 7.632 1.584 7.632 6.588v11.232zm-8.28-2.664c1.476 0 2.916-.504 3.672-1.512v-2.16c-.756-1.008-2.196-1.548-3.672-1.548-1.8 0-3.276.972-3.276 2.628 0 1.656 1.476 2.592 3.276 2.592zm28.474 2.664h-4.608V71.5c0-2.412-1.26-3.24-3.204-3.24-1.8 0-3.168 1.008-3.96 2.016v11.736h-4.572V64.624h4.572v2.232c1.116-1.296 3.276-2.664 6.084-2.664 3.852 0 5.688 2.16 5.688 5.544v12.276zm20.41 0h-4.608V79.78c-1.368 1.728-3.24 2.664-5.364 2.664-4.356 0-7.704-3.312-7.704-9.144 0-5.652 3.276-9.108 7.704-9.108 2.052 0 3.996.864 5.364 2.664V58h4.608v24.012zm-8.532-3.636c1.512 0 3.168-.828 3.924-1.98V70.24c-.756-1.152-2.412-1.98-3.924-1.98-2.628 0-4.428 2.052-4.428 5.04 0 3.024 1.8 5.076 4.428 5.076zm34.306 3.636h-6.12l-6.012-8.784-6.048 8.784h-6.084L99.064 69.7 90.892 58h6.084l5.508 8.208L107.92 58h6.156l-8.172 11.664 8.712 12.348z"/>
    </g>
</svg>
