<svg xmlns="http://www.w3.org/2000/svg" width="183" height="43" viewBox="0 0 183 43">
    <g fill="#FFF" fill-rule="evenodd">
        <path fill-rule="nonzero" d="M0 37.022L2.5 41 20.611 9.785l13 19.723H39L20.556 1z"/>
        <path fill-rule="nonzero" d="M18.278 31.913L16 36l35-.056L27.333 0l-5 .056 20.445 31.857h-.167.111z"/>
        <path fill-rule="nonzero" d="M13.474 38.857h-.055l4.181-7.782.279-.616 6.523-11.98L21.503 14 5 42.776 49.324 43 52 38.857H13.419z"/>
        <path d="M94.172 35h-5.436l-4.212-16.488L80.348 35h-5.436l-6.876-24.012h5.724l4.212 17.352 4.572-17.352h3.996l4.536 17.352 4.212-17.352h5.724L94.172 35zm22.102 0h-4.608v-1.836c-1.188 1.44-3.24 2.268-5.508 2.268-2.772 0-6.012-1.872-6.012-5.76 0-4.104 3.24-5.616 6.012-5.616 2.34 0 4.356.756 5.508 2.124v-2.196c0-1.764-1.512-2.916-3.816-2.916-1.836 0-3.564.72-5.004 2.052l-1.8-3.204c2.124-1.908 4.86-2.736 7.596-2.736 3.996 0 7.632 1.584 7.632 6.588V35zm-8.28-2.664c1.476 0 2.916-.504 3.672-1.512v-2.16c-.756-1.008-2.196-1.548-3.672-1.548-1.8 0-3.276.972-3.276 2.628 0 1.656 1.476 2.592 3.276 2.592zM136.468 35h-4.608V24.488c0-2.412-1.26-3.24-3.204-3.24-1.8 0-3.168 1.008-3.96 2.016V35h-4.572V17.612h4.572v2.232c1.116-1.296 3.276-2.664 6.084-2.664 3.852 0 5.688 2.16 5.688 5.544V35zm20.41 0h-4.608v-2.232c-1.368 1.728-3.24 2.664-5.364 2.664-4.356 0-7.704-3.312-7.704-9.144 0-5.652 3.276-9.108 7.704-9.108 2.052 0 3.996.864 5.364 2.664v-8.856h4.608V35zm-8.532-3.636c1.512 0 3.168-.828 3.924-1.98v-6.156c-.756-1.152-2.412-1.98-3.924-1.98-2.628 0-4.428 2.052-4.428 5.04 0 3.024 1.8 5.076 4.428 5.076zM182.652 35h-6.12l-6.012-8.784L164.472 35h-6.084l8.712-12.312-8.172-11.7h6.084l5.508 8.208 5.436-8.208h6.156l-8.172 11.664L182.652 35z"/>
    </g>
</svg>
